<mxfile host="drawio-plugin" modified="2022-04-25T18:31:00.078Z" agent="5.0 (Windows NT 6.2; Win64; x64) AppleWebKit/537.36 (KHTML, like Gecko) Chrome/97.0.4692.45 Safari/537.36" etag="zIfegsCyF3SPkoz9dE7K" version="15.5.4" type="embed"><diagram id="R2lEEEUBdFMjLlhIrx00" name="Page-1"><mxGraphModel dx="1634" dy="1835" grid="1" gridSize="10" guides="1" tooltips="1" connect="1" arrows="1" fold="1" page="1" pageScale="1" pageWidth="850" pageHeight="1100" math="0" shadow="0" extFonts="Permanent Marker^https://fonts.googleapis.com/css?family=Permanent+Marker"><root><mxCell id="0"/><mxCell id="1" parent="0"/><mxCell id="ammuNSkiLGQzCwAMGMYX-20" value="" style="rounded=0;whiteSpace=wrap;html=1;fontSize=16;" parent="1" vertex="1"><mxGeometry x="870" y="-1040" width="490" height="220" as="geometry"/></mxCell><mxCell id="BMLWJn50_ecA1z8dzPmT-11" style="edgeStyle=none;shape=link;rounded=0;orthogonalLoop=1;jettySize=auto;html=1;fontSize=18;endArrow=none;endFill=0;" parent="1" source="vpf754uIMIgk-DJF2axN-2" target="BMLWJn50_ecA1z8dzPmT-5" edge="1"><mxGeometry relative="1" as="geometry"><mxPoint x="1125" y="-490" as="sourcePoint"/></mxGeometry></mxCell><mxCell id="BMLWJn50_ecA1z8dzPmT-159" style="edgeStyle=none;rounded=0;orthogonalLoop=1;jettySize=auto;html=1;labelBackgroundColor=default;fontFamily=Helvetica;fontSize=16;fontColor=default;startArrow=none;startFill=0;endArrow=none;endFill=0;strokeColor=default;" parent="1" source="vpf754uIMIgk-DJF2axN-2" target="BMLWJn50_ecA1z8dzPmT-158" edge="1"><mxGeometry relative="1" as="geometry"/></mxCell><mxCell id="vpf754uIMIgk-DJF2axN-2" value="&lt;span style=&quot;font-size: 16px&quot;&gt;Client&lt;/span&gt;" style="rounded=0;whiteSpace=wrap;html=1;" parent="1" vertex="1"><mxGeometry x="1065" y="-545" width="120" height="60" as="geometry"/></mxCell><mxCell id="BMLWJn50_ecA1z8dzPmT-1" value="&lt;font style=&quot;font-size: 16px&quot;&gt;Institutional&lt;/font&gt;" style="rounded=0;whiteSpace=wrap;html=1;" parent="1" vertex="1"><mxGeometry x="1180" y="-335" width="120" height="60" as="geometry"/></mxCell><mxCell id="BMLWJn50_ecA1z8dzPmT-2" value="&lt;font style=&quot;font-size: 16px&quot;&gt;Private&lt;/font&gt;" style="rounded=0;whiteSpace=wrap;html=1;" parent="1" vertex="1"><mxGeometry x="950" y="-335" width="120" height="60" as="geometry"/></mxCell><mxCell id="BMLWJn50_ecA1z8dzPmT-7" style="rounded=0;orthogonalLoop=1;jettySize=auto;html=1;endArrow=none;endFill=0;" parent="1" source="BMLWJn50_ecA1z8dzPmT-5" target="BMLWJn50_ecA1z8dzPmT-1" edge="1"><mxGeometry relative="1" as="geometry"/></mxCell><mxCell id="BMLWJn50_ecA1z8dzPmT-8" style="edgeStyle=none;rounded=0;orthogonalLoop=1;jettySize=auto;html=1;fontSize=18;endArrow=none;endFill=0;" parent="1" target="BMLWJn50_ecA1z8dzPmT-2" edge="1"><mxGeometry relative="1" as="geometry"><mxPoint x="1125" y="-415" as="sourcePoint"/></mxGeometry></mxCell><mxCell id="BMLWJn50_ecA1z8dzPmT-5" value="&lt;font style=&quot;font-size: 18px&quot;&gt;&lt;b&gt;D&lt;/b&gt;&lt;/font&gt;" style="ellipse;whiteSpace=wrap;html=1;" parent="1" vertex="1"><mxGeometry x="1110" y="-430" width="30" height="30" as="geometry"/></mxCell><mxCell id="BMLWJn50_ecA1z8dzPmT-18" style="edgeStyle=none;rounded=0;orthogonalLoop=1;jettySize=auto;html=1;fontSize=18;endArrow=none;endFill=0;" parent="1" source="BMLWJn50_ecA1z8dzPmT-12" target="vpf754uIMIgk-DJF2axN-2" edge="1"><mxGeometry relative="1" as="geometry"/></mxCell><mxCell id="BMLWJn50_ecA1z8dzPmT-12" value="&lt;font style=&quot;font-size: 12px&quot;&gt;nif&lt;/font&gt;" style="ellipse;whiteSpace=wrap;html=1;fontSize=18;" parent="1" vertex="1"><mxGeometry x="1220" y="-615" width="70" height="30" as="geometry"/></mxCell><mxCell id="BMLWJn50_ecA1z8dzPmT-20" style="edgeStyle=none;rounded=0;orthogonalLoop=1;jettySize=auto;html=1;fontSize=18;endArrow=none;endFill=0;" parent="1" source="BMLWJn50_ecA1z8dzPmT-13" target="vpf754uIMIgk-DJF2axN-2" edge="1"><mxGeometry relative="1" as="geometry"/></mxCell><mxCell id="BMLWJn50_ecA1z8dzPmT-13" value="&lt;font style=&quot;font-size: 12px&quot;&gt;name&lt;/font&gt;" style="ellipse;whiteSpace=wrap;html=1;fontSize=18;" parent="1" vertex="1"><mxGeometry x="1165" y="-655" width="70" height="30" as="geometry"/></mxCell><mxCell id="BMLWJn50_ecA1z8dzPmT-19" style="edgeStyle=none;rounded=0;orthogonalLoop=1;jettySize=auto;html=1;fontSize=18;endArrow=none;endFill=0;" parent="1" source="BMLWJn50_ecA1z8dzPmT-14" target="vpf754uIMIgk-DJF2axN-2" edge="1"><mxGeometry relative="1" as="geometry"/></mxCell><mxCell id="BMLWJn50_ecA1z8dzPmT-14" value="&lt;font style=&quot;font-size: 12px&quot;&gt;address&lt;/font&gt;" style="ellipse;whiteSpace=wrap;html=1;fontSize=18;" parent="1" vertex="1"><mxGeometry x="950" y="-615" width="70" height="30" as="geometry"/></mxCell><mxCell id="BMLWJn50_ecA1z8dzPmT-17" style="edgeStyle=none;rounded=0;orthogonalLoop=1;jettySize=auto;html=1;fontSize=18;endArrow=none;endFill=0;" parent="1" source="BMLWJn50_ecA1z8dzPmT-15" target="vpf754uIMIgk-DJF2axN-2" edge="1"><mxGeometry relative="1" as="geometry"/></mxCell><mxCell id="BMLWJn50_ecA1z8dzPmT-15" value="&lt;font style=&quot;font-size: 12px&quot;&gt;phone_number&lt;/font&gt;" style="ellipse;whiteSpace=wrap;html=1;fontSize=18;" parent="1" vertex="1"><mxGeometry x="980" y="-655" width="100" height="30" as="geometry"/></mxCell><mxCell id="BMLWJn50_ecA1z8dzPmT-23" style="edgeStyle=none;rounded=0;orthogonalLoop=1;jettySize=auto;html=1;fontSize=18;endArrow=none;endFill=0;" parent="1" source="BMLWJn50_ecA1z8dzPmT-22" target="BMLWJn50_ecA1z8dzPmT-1" edge="1"><mxGeometry relative="1" as="geometry"><mxPoint x="1270" y="-155" as="sourcePoint"/></mxGeometry></mxCell><mxCell id="BMLWJn50_ecA1z8dzPmT-22" value="&lt;font style=&quot;font-size: 12px&quot;&gt;contact_name&lt;/font&gt;" style="ellipse;whiteSpace=wrap;html=1;fontSize=18;" parent="1" vertex="1"><mxGeometry x="1330" y="-320" width="120" height="30" as="geometry"/></mxCell><mxCell id="BMLWJn50_ecA1z8dzPmT-25" style="edgeStyle=none;rounded=0;orthogonalLoop=1;jettySize=auto;html=1;fontSize=12;endArrow=none;endFill=0;" parent="1" source="BMLWJn50_ecA1z8dzPmT-24" target="BMLWJn50_ecA1z8dzPmT-2" edge="1"><mxGeometry relative="1" as="geometry"/></mxCell><mxCell id="BMLWJn50_ecA1z8dzPmT-24" value="&lt;font style=&quot;font-size: 12px&quot;&gt;citizen_card_number&lt;/font&gt;" style="ellipse;whiteSpace=wrap;html=1;fontSize=18;" parent="1" vertex="1"><mxGeometry x="780" y="-322.5" width="140" height="35" as="geometry"/></mxCell><mxCell id="BMLWJn50_ecA1z8dzPmT-54" value="1" style="edgeStyle=none;rounded=0;orthogonalLoop=1;jettySize=auto;html=1;fontSize=16;endArrow=none;endFill=0;shape=link;" parent="1" source="BMLWJn50_ecA1z8dzPmT-26" target="4" edge="1"><mxGeometry relative="1" as="geometry"><mxPoint x="360" y="-515" as="targetPoint"/></mxGeometry></mxCell><mxCell id="BMLWJn50_ecA1z8dzPmT-60" value="" style="edgeStyle=none;rounded=0;orthogonalLoop=1;jettySize=auto;html=1;fontSize=16;endArrow=none;endFill=0;" parent="1" source="BMLWJn50_ecA1z8dzPmT-26" target="BMLWJn50_ecA1z8dzPmT-59" edge="1"><mxGeometry relative="1" as="geometry"/></mxCell><mxCell id="BMLWJn50_ecA1z8dzPmT-69" value="1" style="edgeStyle=none;rounded=0;orthogonalLoop=1;jettySize=auto;html=1;fontSize=16;endArrow=none;endFill=0;" parent="1" source="BMLWJn50_ecA1z8dzPmT-26" target="BMLWJn50_ecA1z8dzPmT-192" edge="1"><mxGeometry relative="1" as="geometry"><mxPoint x="495" y="-615" as="targetPoint"/></mxGeometry></mxCell><mxCell id="BMLWJn50_ecA1z8dzPmT-111" value="1" style="edgeStyle=none;rounded=0;orthogonalLoop=1;jettySize=auto;html=1;labelBackgroundColor=default;fontFamily=Helvetica;fontSize=16;fontColor=default;startArrow=none;startFill=0;endArrow=none;endFill=0;strokeColor=default;" parent="1" source="BMLWJn50_ecA1z8dzPmT-26" target="BMLWJn50_ecA1z8dzPmT-110" edge="1"><mxGeometry relative="1" as="geometry"/></mxCell><mxCell id="BMLWJn50_ecA1z8dzPmT-26" value="&lt;font style=&quot;font-size: 16px&quot;&gt;Vehicle&lt;/font&gt;" style="rounded=0;whiteSpace=wrap;html=1;" parent="1" vertex="1"><mxGeometry x="435" y="-545" width="120" height="60" as="geometry"/></mxCell><mxCell id="BMLWJn50_ecA1z8dzPmT-47" value="1" style="edgeStyle=none;rounded=0;orthogonalLoop=1;jettySize=auto;html=1;fontSize=16;endArrow=none;endFill=0;" parent="1" source="vucZgftCCPHaB8sFAm8C-6" target="BMLWJn50_ecA1z8dzPmT-46" edge="1"><mxGeometry relative="1" as="geometry"><mxPoint x="90" y="-515" as="sourcePoint"/></mxGeometry></mxCell><mxCell id="BMLWJn50_ecA1z8dzPmT-82" value="N" style="edgeStyle=none;rounded=0;orthogonalLoop=1;jettySize=auto;html=1;fontSize=16;startArrow=none;startFill=0;endArrow=none;endFill=0;shape=link;" parent="1" source="vucZgftCCPHaB8sFAm8C-6" target="BMLWJn50_ecA1z8dzPmT-81" edge="1"><mxGeometry relative="1" as="geometry"><mxPoint x="150" y="-545" as="sourcePoint"/></mxGeometry></mxCell><mxCell id="BMLWJn50_ecA1z8dzPmT-57" value="N" style="edgeStyle=none;rounded=0;orthogonalLoop=1;jettySize=auto;html=1;fontSize=16;endArrow=none;endFill=0;shape=link;" parent="1" source="BMLWJn50_ecA1z8dzPmT-46" target="BMLWJn50_ecA1z8dzPmT-56" edge="1"><mxGeometry relative="1" as="geometry"/></mxCell><mxCell id="BMLWJn50_ecA1z8dzPmT-46" value="Sends" style="rhombus;whiteSpace=wrap;html=1;rounded=0;" parent="1" vertex="1"><mxGeometry x="-70" y="-555" width="80" height="80" as="geometry"/></mxCell><mxCell id="BMLWJn50_ecA1z8dzPmT-51" value="N" style="edgeStyle=none;rounded=0;orthogonalLoop=1;jettySize=auto;html=1;fontSize=16;endArrow=none;endFill=0;shape=link;" parent="1" source="BMLWJn50_ecA1z8dzPmT-49" target="BMLWJn50_ecA1z8dzPmT-26" edge="1"><mxGeometry relative="1" as="geometry"><mxPoint x="865" y="-505.0000000000002" as="targetPoint"/></mxGeometry></mxCell><mxCell id="BMLWJn50_ecA1z8dzPmT-49" value="Has" style="rhombus;whiteSpace=wrap;html=1;rounded=0;" parent="1" vertex="1"><mxGeometry x="725" y="-555" width="80" height="80" as="geometry"/></mxCell><mxCell id="BMLWJn50_ecA1z8dzPmT-55" value="1" style="edgeStyle=none;rounded=0;orthogonalLoop=1;jettySize=auto;html=1;fontSize=16;endArrow=none;endFill=0;shape=link;" parent="1" source="4" target="vucZgftCCPHaB8sFAm8C-6" edge="1"><mxGeometry relative="1" as="geometry"><mxPoint x="210" y="-515" as="targetPoint"/><mxPoint x="280" y="-515" as="sourcePoint"/></mxGeometry></mxCell><mxCell id="BMLWJn50_ecA1z8dzPmT-102" value="" style="edgeStyle=none;shape=connector;rounded=0;orthogonalLoop=1;jettySize=auto;html=1;labelBackgroundColor=default;fontFamily=Helvetica;fontSize=16;fontColor=default;startArrow=none;startFill=0;endArrow=none;endFill=0;strokeColor=default;" parent="1" source="BMLWJn50_ecA1z8dzPmT-56" target="BMLWJn50_ecA1z8dzPmT-101" edge="1"><mxGeometry relative="1" as="geometry"/></mxCell><mxCell id="BMLWJn50_ecA1z8dzPmT-106" value="" style="edgeStyle=none;rounded=0;orthogonalLoop=1;jettySize=auto;html=1;labelBackgroundColor=default;fontFamily=Helvetica;fontSize=16;fontColor=default;startArrow=none;startFill=0;endArrow=none;endFill=0;strokeColor=default;" parent="1" source="BMLWJn50_ecA1z8dzPmT-56" target="BMLWJn50_ecA1z8dzPmT-105" edge="1"><mxGeometry relative="1" as="geometry"/></mxCell><mxCell id="BMLWJn50_ecA1z8dzPmT-126" value="1" style="edgeStyle=none;rounded=0;orthogonalLoop=1;jettySize=auto;html=1;labelBackgroundColor=default;fontFamily=Helvetica;fontSize=16;fontColor=default;startArrow=none;startFill=0;endArrow=none;endFill=0;strokeColor=default;" parent="1" source="BMLWJn50_ecA1z8dzPmT-56" target="BMLWJn50_ecA1z8dzPmT-191" edge="1"><mxGeometry relative="1" as="geometry"><mxPoint x="-220" y="-360" as="targetPoint"/></mxGeometry></mxCell><mxCell id="BMLWJn50_ecA1z8dzPmT-56" value="&lt;font style=&quot;font-size: 16px&quot;&gt;GPSData&lt;/font&gt;" style="whiteSpace=wrap;html=1;rounded=0;" parent="1" vertex="1"><mxGeometry x="-280" y="-545" width="120" height="60" as="geometry"/></mxCell><mxCell id="BMLWJn50_ecA1z8dzPmT-59" value="license_plate" style="ellipse;whiteSpace=wrap;html=1;rounded=0;" parent="1" vertex="1"><mxGeometry x="550" y="-625" width="105" height="40" as="geometry"/></mxCell><mxCell id="BMLWJn50_ecA1z8dzPmT-71" value="1" style="edgeStyle=none;rounded=0;orthogonalLoop=1;jettySize=auto;html=1;fontSize=16;endArrow=none;endFill=0;shape=link;" parent="1" source="BMLWJn50_ecA1z8dzPmT-192" target="BMLWJn50_ecA1z8dzPmT-163" edge="1"><mxGeometry relative="1" as="geometry"><mxPoint x="495" y="-695" as="sourcePoint"/><mxPoint x="495" y="-785" as="targetPoint"/></mxGeometry></mxCell><mxCell id="BMLWJn50_ecA1z8dzPmT-74" value="" style="edgeStyle=none;rounded=0;orthogonalLoop=1;jettySize=auto;html=1;fontSize=16;endArrow=none;endFill=0;" parent="1" source="BMLWJn50_ecA1z8dzPmT-163" target="BMLWJn50_ecA1z8dzPmT-73" edge="1"><mxGeometry relative="1" as="geometry"><mxPoint x="555" y="-815" as="sourcePoint"/></mxGeometry></mxCell><mxCell id="BMLWJn50_ecA1z8dzPmT-77" value="" style="edgeStyle=none;rounded=0;orthogonalLoop=1;jettySize=auto;html=1;fontSize=16;endArrow=none;endFill=0;" parent="1" source="BMLWJn50_ecA1z8dzPmT-163" target="BMLWJn50_ecA1z8dzPmT-76" edge="1"><mxGeometry relative="1" as="geometry"><mxPoint x="555" y="-835.625" as="sourcePoint"/></mxGeometry></mxCell><mxCell id="BMLWJn50_ecA1z8dzPmT-73" value="name" style="ellipse;whiteSpace=wrap;html=1;rounded=0;" parent="1" vertex="1"><mxGeometry x="535" y="-920" width="65" height="30" as="geometry"/></mxCell><mxCell id="BMLWJn50_ecA1z8dzPmT-76" value="phone_number" style="ellipse;whiteSpace=wrap;html=1;rounded=0;" parent="1" vertex="1"><mxGeometry x="370" y="-920" width="110" height="30" as="geometry"/></mxCell><mxCell id="BMLWJn50_ecA1z8dzPmT-84" value="1" style="edgeStyle=none;shape=connector;rounded=0;orthogonalLoop=1;jettySize=auto;html=1;labelBackgroundColor=default;fontFamily=Helvetica;fontSize=16;fontColor=default;startArrow=none;startFill=0;endArrow=none;endFill=0;strokeColor=default;" parent="1" source="BMLWJn50_ecA1z8dzPmT-81" target="BMLWJn50_ecA1z8dzPmT-83" edge="1"><mxGeometry relative="1" as="geometry"/></mxCell><mxCell id="BMLWJn50_ecA1z8dzPmT-81" value="Has" style="rhombus;whiteSpace=wrap;html=1;rounded=0;" parent="1" vertex="1"><mxGeometry x="110" y="-695" width="80" height="80" as="geometry"/></mxCell><mxCell id="BMLWJn50_ecA1z8dzPmT-86" value="" style="edgeStyle=none;shape=connector;rounded=0;orthogonalLoop=1;jettySize=auto;html=1;labelBackgroundColor=default;fontFamily=Helvetica;fontSize=16;fontColor=default;startArrow=none;startFill=0;endArrow=none;endFill=0;strokeColor=default;" parent="1" source="BMLWJn50_ecA1z8dzPmT-83" target="BMLWJn50_ecA1z8dzPmT-85" edge="1"><mxGeometry relative="1" as="geometry"/></mxCell><mxCell id="BMLWJn50_ecA1z8dzPmT-89" value="" style="edgeStyle=none;shape=connector;rounded=0;orthogonalLoop=1;jettySize=auto;html=1;labelBackgroundColor=default;fontFamily=Helvetica;fontSize=16;fontColor=default;startArrow=none;startFill=0;endArrow=none;endFill=0;strokeColor=default;" parent="1" source="BMLWJn50_ecA1z8dzPmT-83" target="BMLWJn50_ecA1z8dzPmT-88" edge="1"><mxGeometry relative="1" as="geometry"/></mxCell><mxCell id="BMLWJn50_ecA1z8dzPmT-83" value="&lt;font style=&quot;font-size: 16px&quot;&gt;GPSDeviceState&lt;/font&gt;" style="whiteSpace=wrap;html=1;rounded=0;" parent="1" vertex="1"><mxGeometry x="80" y="-845" width="140" height="60" as="geometry"/></mxCell><mxCell id="BMLWJn50_ecA1z8dzPmT-85" value="status" style="ellipse;whiteSpace=wrap;html=1;rounded=0;" parent="1" vertex="1"><mxGeometry x="170" y="-890" width="80" height="30" as="geometry"/></mxCell><mxCell id="BMLWJn50_ecA1z8dzPmT-88" value="&lt;u&gt;id&lt;/u&gt;" style="ellipse;whiteSpace=wrap;html=1;rounded=0;" parent="1" vertex="1"><mxGeometry x="70" y="-890" width="80" height="30" as="geometry"/></mxCell><mxCell id="BMLWJn50_ecA1z8dzPmT-90" value="" style="edgeStyle=none;shape=connector;rounded=0;orthogonalLoop=1;jettySize=auto;html=1;labelBackgroundColor=default;fontFamily=Helvetica;fontSize=16;fontColor=default;startArrow=none;startFill=0;endArrow=none;endFill=0;strokeColor=default;" parent="1" source="vucZgftCCPHaB8sFAm8C-6" target="BMLWJn50_ecA1z8dzPmT-91" edge="1"><mxGeometry relative="1" as="geometry"><mxPoint x="150" y="-485" as="sourcePoint"/></mxGeometry></mxCell><mxCell id="BMLWJn50_ecA1z8dzPmT-91" value="&lt;u&gt;id&lt;/u&gt;" style="ellipse;whiteSpace=wrap;html=1;rounded=0;" parent="1" vertex="1"><mxGeometry x="110" y="-435" width="80" height="30" as="geometry"/></mxCell><mxCell id="BMLWJn50_ecA1z8dzPmT-92" value="" style="edgeStyle=none;shape=connector;rounded=0;orthogonalLoop=1;jettySize=auto;html=1;labelBackgroundColor=default;fontFamily=Helvetica;fontSize=16;fontColor=default;startArrow=none;startFill=0;endArrow=none;endFill=0;strokeColor=default;" parent="1" source="BMLWJn50_ecA1z8dzPmT-56" target="BMLWJn50_ecA1z8dzPmT-93" edge="1"><mxGeometry relative="1" as="geometry"><mxPoint x="-170" y="-580" as="sourcePoint"/></mxGeometry></mxCell><mxCell id="BMLWJn50_ecA1z8dzPmT-93" value="&lt;u&gt;id&lt;/u&gt;" style="ellipse;whiteSpace=wrap;html=1;rounded=0;" parent="1" vertex="1"><mxGeometry x="-260" y="-615" width="80" height="30" as="geometry"/></mxCell><mxCell id="BMLWJn50_ecA1z8dzPmT-96" value="" style="edgeStyle=none;shape=connector;rounded=0;orthogonalLoop=1;jettySize=auto;html=1;labelBackgroundColor=default;fontFamily=Helvetica;fontSize=16;fontColor=default;startArrow=none;startFill=0;endArrow=none;endFill=0;strokeColor=default;" parent="1" source="BMLWJn50_ecA1z8dzPmT-26" target="BMLWJn50_ecA1z8dzPmT-97" edge="1"><mxGeometry relative="1" as="geometry"><mxPoint x="560" y="-580" as="sourcePoint"/></mxGeometry></mxCell><mxCell id="BMLWJn50_ecA1z8dzPmT-97" value="&lt;u&gt;id&lt;/u&gt;" style="ellipse;whiteSpace=wrap;html=1;rounded=0;" parent="1" vertex="1"><mxGeometry x="365" y="-620" width="80" height="30" as="geometry"/></mxCell><mxCell id="BMLWJn50_ecA1z8dzPmT-98" value="" style="edgeStyle=none;shape=connector;rounded=0;orthogonalLoop=1;jettySize=auto;html=1;labelBackgroundColor=default;fontFamily=Helvetica;fontSize=16;fontColor=default;startArrow=none;startFill=0;endArrow=none;endFill=0;strokeColor=default;" parent="1" source="vpf754uIMIgk-DJF2axN-2" target="BMLWJn50_ecA1z8dzPmT-99" edge="1"><mxGeometry relative="1" as="geometry"><mxPoint x="1165" y="-559.2974315965316" as="sourcePoint"/><mxPoint x="1230.6435858483947" y="-438.12676362005413" as="targetPoint"/></mxGeometry></mxCell><mxCell id="BMLWJn50_ecA1z8dzPmT-99" value="&lt;u&gt;id&lt;/u&gt;" style="ellipse;whiteSpace=wrap;html=1;rounded=0;" parent="1" vertex="1"><mxGeometry x="1085" y="-680" width="80" height="30" as="geometry"/></mxCell><mxCell id="BMLWJn50_ecA1z8dzPmT-100" style="edgeStyle=none;shape=connector;rounded=0;orthogonalLoop=1;jettySize=auto;html=1;exitX=0.5;exitY=0;exitDx=0;exitDy=0;labelBackgroundColor=default;fontFamily=Helvetica;fontSize=16;fontColor=default;startArrow=none;startFill=0;endArrow=none;endFill=0;strokeColor=default;" parent="1" source="BMLWJn50_ecA1z8dzPmT-99" target="BMLWJn50_ecA1z8dzPmT-99" edge="1"><mxGeometry relative="1" as="geometry"/></mxCell><mxCell id="BMLWJn50_ecA1z8dzPmT-101" value="timestamp" style="ellipse;whiteSpace=wrap;html=1;rounded=0;" parent="1" vertex="1"><mxGeometry x="-360" y="-615" width="90" height="40" as="geometry"/></mxCell><mxCell id="BMLWJn50_ecA1z8dzPmT-105" value="location" style="ellipse;whiteSpace=wrap;html=1;rounded=0;" parent="1" vertex="1"><mxGeometry x="-170" y="-615" width="100" height="40" as="geometry"/></mxCell><mxCell id="BMLWJn50_ecA1z8dzPmT-113" value="N" style="edgeStyle=none;rounded=0;orthogonalLoop=1;jettySize=auto;html=1;labelBackgroundColor=default;fontFamily=Helvetica;fontSize=16;fontColor=default;startArrow=none;startFill=0;endArrow=none;endFill=0;strokeColor=default;shape=link;" parent="1" source="BMLWJn50_ecA1z8dzPmT-110" target="BMLWJn50_ecA1z8dzPmT-112" edge="1"><mxGeometry relative="1" as="geometry"/></mxCell><mxCell id="BMLWJn50_ecA1z8dzPmT-110" value="Has" style="rhombus;whiteSpace=wrap;html=1;rounded=0;" parent="1" vertex="1"><mxGeometry x="455" y="-410" width="80" height="80" as="geometry"/></mxCell><mxCell id="BMLWJn50_ecA1z8dzPmT-120" value="" style="edgeStyle=none;rounded=0;orthogonalLoop=1;jettySize=auto;html=1;labelBackgroundColor=default;fontFamily=Helvetica;fontSize=16;fontColor=default;startArrow=none;startFill=0;endArrow=none;endFill=0;strokeColor=default;" parent="1" source="BMLWJn50_ecA1z8dzPmT-112" target="BMLWJn50_ecA1z8dzPmT-119" edge="1"><mxGeometry relative="1" as="geometry"/></mxCell><mxCell id="BMLWJn50_ecA1z8dzPmT-112" value="&lt;font style=&quot;font-size: 16px&quot;&gt;GreenZone&lt;/font&gt;" style="whiteSpace=wrap;html=1;rounded=0;" parent="1" vertex="1"><mxGeometry x="435" y="-245" width="120" height="60" as="geometry"/></mxCell><mxCell id="BMLWJn50_ecA1z8dzPmT-114" value="" style="edgeStyle=none;shape=connector;rounded=0;orthogonalLoop=1;jettySize=auto;html=1;labelBackgroundColor=default;fontFamily=Helvetica;fontSize=16;fontColor=default;startArrow=none;startFill=0;endArrow=none;endFill=0;strokeColor=default;" parent="1" source="BMLWJn50_ecA1z8dzPmT-112" target="BMLWJn50_ecA1z8dzPmT-115" edge="1"><mxGeometry relative="1" as="geometry"><mxPoint x="481.4705882352946" y="-275" as="sourcePoint"/></mxGeometry></mxCell><mxCell id="BMLWJn50_ecA1z8dzPmT-115" value="&lt;u&gt;id&lt;/u&gt;" style="ellipse;whiteSpace=wrap;html=1;rounded=0;" parent="1" vertex="1"><mxGeometry x="455" y="-155" width="80" height="30" as="geometry"/></mxCell><mxCell id="BMLWJn50_ecA1z8dzPmT-118" style="edgeStyle=none;rounded=0;orthogonalLoop=1;jettySize=auto;html=1;labelBackgroundColor=default;fontFamily=Helvetica;fontSize=16;fontColor=default;startArrow=none;startFill=0;endArrow=none;endFill=0;strokeColor=default;" parent="1" source="BMLWJn50_ecA1z8dzPmT-116" target="BMLWJn50_ecA1z8dzPmT-112" edge="1"><mxGeometry relative="1" as="geometry"/></mxCell><mxCell id="BMLWJn50_ecA1z8dzPmT-116" value="center_location" style="ellipse;whiteSpace=wrap;html=1;rounded=0;" parent="1" vertex="1"><mxGeometry x="580" y="-230" width="110" height="30" as="geometry"/></mxCell><mxCell id="BMLWJn50_ecA1z8dzPmT-119" value="radius" style="ellipse;whiteSpace=wrap;html=1;rounded=0;" parent="1" vertex="1"><mxGeometry x="330" y="-230" width="70" height="30" as="geometry"/></mxCell><mxCell id="BMLWJn50_ecA1z8dzPmT-121" value="&lt;font style=&quot;font-size: 16px&quot;&gt;Unprocessed&lt;/font&gt;" style="whiteSpace=wrap;html=1;rounded=0;" parent="1" vertex="1"><mxGeometry x="-670" y="-740" width="200" height="60" as="geometry"/></mxCell><mxCell id="BMLWJn50_ecA1z8dzPmT-122" value="&lt;font style=&quot;font-size: 16px&quot;&gt;Invalid&lt;/font&gt;" style="whiteSpace=wrap;html=1;rounded=0;" parent="1" vertex="1"><mxGeometry x="-360" y="-740" width="200" height="60" as="geometry"/></mxCell><mxCell id="BMLWJn50_ecA1z8dzPmT-127" value="1" style="edgeStyle=none;rounded=0;orthogonalLoop=1;jettySize=auto;html=1;labelBackgroundColor=default;fontFamily=Helvetica;fontSize=16;fontColor=default;startArrow=none;startFill=0;endArrow=none;endFill=0;strokeColor=default;shape=link;" parent="1" source="BMLWJn50_ecA1z8dzPmT-191" target="BMLWJn50_ecA1z8dzPmT-188" edge="1"><mxGeometry relative="1" as="geometry"><mxPoint x="-220" y="-280" as="sourcePoint"/><mxPoint x="-220" y="-140" as="targetPoint"/><Array as="points"/></mxGeometry></mxCell><mxCell id="BMLWJn50_ecA1z8dzPmT-131" style="edgeStyle=none;rounded=0;orthogonalLoop=1;jettySize=auto;html=1;labelBackgroundColor=default;fontFamily=Helvetica;fontSize=16;fontColor=default;startArrow=none;startFill=0;endArrow=none;endFill=0;strokeColor=default;shape=link;" parent="1" source="BMLWJn50_ecA1z8dzPmT-128" target="BMLWJn50_ecA1z8dzPmT-130" edge="1"><mxGeometry relative="1" as="geometry"/></mxCell><mxCell id="BMLWJn50_ecA1z8dzPmT-128" value="&lt;font style=&quot;font-size: 16px&quot;&gt;RetrievedGPSData&lt;/font&gt;" style="whiteSpace=wrap;html=1;rounded=0;" parent="1" vertex="1"><mxGeometry x="-500" y="-920" width="180" height="60" as="geometry"/></mxCell><mxCell id="BMLWJn50_ecA1z8dzPmT-132" style="edgeStyle=none;rounded=0;orthogonalLoop=1;jettySize=auto;html=1;labelBackgroundColor=default;fontFamily=Helvetica;fontSize=16;fontColor=default;startArrow=none;startFill=0;endArrow=none;endFill=0;strokeColor=default;" parent="1" source="BMLWJn50_ecA1z8dzPmT-130" target="BMLWJn50_ecA1z8dzPmT-122" edge="1"><mxGeometry relative="1" as="geometry"/></mxCell><mxCell id="BMLWJn50_ecA1z8dzPmT-133" style="edgeStyle=none;rounded=0;orthogonalLoop=1;jettySize=auto;html=1;labelBackgroundColor=default;fontFamily=Helvetica;fontSize=16;fontColor=default;startArrow=none;startFill=0;endArrow=none;endFill=0;strokeColor=default;" parent="1" source="BMLWJn50_ecA1z8dzPmT-130" target="BMLWJn50_ecA1z8dzPmT-121" edge="1"><mxGeometry relative="1" as="geometry"/></mxCell><mxCell id="BMLWJn50_ecA1z8dzPmT-130" value="&lt;font style=&quot;font-size: 18px&quot;&gt;&lt;b&gt;D&lt;/b&gt;&lt;/font&gt;" style="ellipse;whiteSpace=wrap;html=1;" parent="1" vertex="1"><mxGeometry x="-425" y="-815" width="30" height="30" as="geometry"/></mxCell><mxCell id="BMLWJn50_ecA1z8dzPmT-139" style="edgeStyle=none;rounded=0;orthogonalLoop=1;jettySize=auto;html=1;labelBackgroundColor=default;fontFamily=Helvetica;fontSize=16;fontColor=default;startArrow=none;startFill=0;endArrow=none;endFill=0;strokeColor=default;" parent="1" source="BMLWJn50_ecA1z8dzPmT-136" target="BMLWJn50_ecA1z8dzPmT-128" edge="1"><mxGeometry relative="1" as="geometry"/></mxCell><mxCell id="BMLWJn50_ecA1z8dzPmT-136" value="&lt;u&gt;id&lt;/u&gt;" style="ellipse;whiteSpace=wrap;html=1;rounded=0;" parent="1" vertex="1"><mxGeometry x="-450" y="-1040" width="80" height="30" as="geometry"/></mxCell><mxCell id="BMLWJn50_ecA1z8dzPmT-140" style="edgeStyle=none;rounded=0;orthogonalLoop=1;jettySize=auto;html=1;labelBackgroundColor=default;fontFamily=Helvetica;fontSize=16;fontColor=default;startArrow=none;startFill=0;endArrow=none;endFill=0;strokeColor=default;" parent="1" source="BMLWJn50_ecA1z8dzPmT-137" target="BMLWJn50_ecA1z8dzPmT-128" edge="1"><mxGeometry relative="1" as="geometry"/></mxCell><mxCell id="BMLWJn50_ecA1z8dzPmT-137" value="timestamp" style="ellipse;whiteSpace=wrap;html=1;rounded=0;" parent="1" vertex="1"><mxGeometry x="-560" y="-990" width="90" height="40" as="geometry"/></mxCell><mxCell id="BMLWJn50_ecA1z8dzPmT-141" style="edgeStyle=none;rounded=0;orthogonalLoop=1;jettySize=auto;html=1;labelBackgroundColor=default;fontFamily=Helvetica;fontSize=16;fontColor=default;startArrow=none;startFill=0;endArrow=none;endFill=0;strokeColor=default;" parent="1" source="BMLWJn50_ecA1z8dzPmT-138" target="BMLWJn50_ecA1z8dzPmT-128" edge="1"><mxGeometry relative="1" as="geometry"/></mxCell><mxCell id="BMLWJn50_ecA1z8dzPmT-138" value="location" style="ellipse;whiteSpace=wrap;html=1;rounded=0;" parent="1" vertex="1"><mxGeometry x="-360" y="-990" width="100" height="40" as="geometry"/></mxCell><mxCell id="BMLWJn50_ecA1z8dzPmT-143" style="edgeStyle=none;rounded=0;orthogonalLoop=1;jettySize=auto;html=1;labelBackgroundColor=default;fontFamily=Helvetica;fontSize=16;fontColor=default;startArrow=none;startFill=0;endArrow=none;endFill=0;strokeColor=default;" parent="1" source="BMLWJn50_ecA1z8dzPmT-142" target="BMLWJn50_ecA1z8dzPmT-128" edge="1"><mxGeometry relative="1" as="geometry"/></mxCell><mxCell id="BMLWJn50_ecA1z8dzPmT-142" value="device_id" style="ellipse;whiteSpace=wrap;html=1;rounded=0;" parent="1" vertex="1"><mxGeometry x="-280" y="-940" width="100" height="40" as="geometry"/></mxCell><mxCell id="BMLWJn50_ecA1z8dzPmT-158" value="&lt;font style=&quot;font-size: 12px&quot;&gt;active&lt;/font&gt;" style="ellipse;whiteSpace=wrap;html=1;fontSize=18;" parent="1" vertex="1"><mxGeometry x="1240" y="-565" width="70" height="30" as="geometry"/></mxCell><mxCell id="BMLWJn50_ecA1z8dzPmT-162" style="edgeStyle=none;rounded=0;orthogonalLoop=1;jettySize=auto;html=1;labelBackgroundColor=default;fontFamily=Helvetica;fontSize=16;fontColor=default;startArrow=none;startFill=0;endArrow=none;endFill=0;strokeColor=default;" parent="1" source="BMLWJn50_ecA1z8dzPmT-161" target="BMLWJn50_ecA1z8dzPmT-26" edge="1"><mxGeometry relative="1" as="geometry"><mxPoint x="913.2142857142858" y="-505.0000000000002" as="targetPoint"/></mxGeometry></mxCell><mxCell id="BMLWJn50_ecA1z8dzPmT-161" value="num_alarms" style="ellipse;whiteSpace=wrap;html=1;rounded=0;" parent="1" vertex="1"><mxGeometry x="555" y="-450" width="105" height="40" as="geometry"/></mxCell><mxCell id="BMLWJn50_ecA1z8dzPmT-163" value="Driver" style="verticalLabelPosition=middle;verticalAlign=middle;html=1;shape=mxgraph.basic.frame;dx=6.8;fontFamily=Helvetica;fontSize=16;fontColor=default;labelPosition=center;align=center;" parent="1" vertex="1"><mxGeometry x="445" y="-860" width="100" height="60" as="geometry"/></mxCell><mxCell id="BMLWJn50_ecA1z8dzPmT-171" value="1" style="edgeStyle=none;rounded=0;orthogonalLoop=1;jettySize=auto;html=1;labelBackgroundColor=default;fontFamily=Helvetica;fontSize=16;fontColor=default;startArrow=none;startFill=0;endArrow=none;endFill=0;strokeColor=default;entryX=0.5;entryY=0;entryDx=0;entryDy=0;" parent="1" source="vpf754uIMIgk-DJF2axN-2" target="BMLWJn50_ecA1z8dzPmT-173" edge="1"><mxGeometry relative="1" as="geometry"><mxPoint x="800" y="-230" as="sourcePoint"/></mxGeometry></mxCell><mxCell id="BMLWJn50_ecA1z8dzPmT-172" value="N" style="edgeStyle=none;rounded=0;orthogonalLoop=1;jettySize=auto;html=1;labelBackgroundColor=default;fontFamily=Helvetica;fontSize=16;fontColor=default;startArrow=none;startFill=0;endArrow=none;endFill=0;strokeColor=default;exitX=0.5;exitY=1;exitDx=0;exitDy=0;" parent="1" source="BMLWJn50_ecA1z8dzPmT-173" target="BMLWJn50_ecA1z8dzPmT-2" edge="1"><mxGeometry relative="1" as="geometry"><mxPoint x="995.5" y="-230" as="targetPoint"/></mxGeometry></mxCell><mxCell id="BMLWJn50_ecA1z8dzPmT-173" value="Refers" style="rhombus;whiteSpace=wrap;html=1;rounded=0;" parent="1" vertex="1"><mxGeometry x="970" y="-460" width="80" height="80" as="geometry"/></mxCell><mxCell id="BMLWJn50_ecA1z8dzPmT-177" value="" style="verticalLabelPosition=bottom;verticalAlign=top;html=1;shape=mxgraph.basic.arc;startAngle=0.39939211870662633;endAngle=0.9841372412847232;fontFamily=Helvetica;fontSize=16;fontColor=default;rotation=-30;" parent="1" vertex="1"><mxGeometry x="1080" y="-401" width="30" height="30" as="geometry"/></mxCell><mxCell id="BMLWJn50_ecA1z8dzPmT-178" value="" style="verticalLabelPosition=bottom;verticalAlign=top;html=1;shape=mxgraph.basic.arc;startAngle=0.39939211870662633;endAngle=0.9841372412847232;fontFamily=Helvetica;fontSize=16;fontColor=default;rotation=-120;" parent="1" vertex="1"><mxGeometry x="1140" y="-402.5" width="30" height="30" as="geometry"/></mxCell><mxCell id="BMLWJn50_ecA1z8dzPmT-179" value="" style="verticalLabelPosition=bottom;verticalAlign=top;html=1;shape=mxgraph.basic.arc;startAngle=0.39939211870662633;endAngle=0.9841372412847232;fontFamily=Helvetica;fontSize=16;fontColor=default;rotation=-10;" parent="1" vertex="1"><mxGeometry x="-460" y="-795" width="30" height="30" as="geometry"/></mxCell><mxCell id="BMLWJn50_ecA1z8dzPmT-180" value="" style="verticalLabelPosition=bottom;verticalAlign=top;html=1;shape=mxgraph.basic.arc;startAngle=0.39939211870662633;endAngle=0.9841372412847232;fontFamily=Helvetica;fontSize=16;fontColor=default;rotation=-120;" parent="1" vertex="1"><mxGeometry x="-390" y="-795" width="30" height="30" as="geometry"/></mxCell><mxCell id="BMLWJn50_ecA1z8dzPmT-188" value="Alarm" style="verticalLabelPosition=middle;verticalAlign=middle;html=1;shape=mxgraph.basic.frame;dx=6.8;fontFamily=Helvetica;fontSize=16;fontColor=default;labelPosition=center;align=center;" parent="1" vertex="1"><mxGeometry x="-270" y="-275" width="100" height="60" as="geometry"/></mxCell><mxCell id="BMLWJn50_ecA1z8dzPmT-191" value="&lt;font style=&quot;font-size: 12px&quot;&gt;Triggers&lt;/font&gt;" style="shape=rhombus;double=1;perimeter=rhombusPerimeter;whiteSpace=wrap;html=1;align=center;rounded=0;fontFamily=Helvetica;fontSize=16;fontColor=default;strokeColor=default;" parent="1" vertex="1"><mxGeometry x="-290" y="-417.5" width="140" height="60" as="geometry"/></mxCell><mxCell id="BMLWJn50_ecA1z8dzPmT-192" value="&lt;font style=&quot;font-size: 12px&quot;&gt;Has&lt;/font&gt;" style="shape=rhombus;double=1;perimeter=rhombusPerimeter;whiteSpace=wrap;html=1;align=center;rounded=0;fontFamily=Helvetica;fontSize=16;fontColor=default;strokeColor=default;" parent="1" vertex="1"><mxGeometry x="435" y="-715" width="120" height="60" as="geometry"/></mxCell><mxCell id="vucZgftCCPHaB8sFAm8C-6" value="GPSDevice" style="verticalLabelPosition=middle;verticalAlign=middle;html=1;shape=mxgraph.basic.frame;dx=6.8;fontFamily=Helvetica;fontSize=16;fontColor=default;labelPosition=center;align=center;" parent="1" vertex="1"><mxGeometry x="90" y="-545" width="120" height="60" as="geometry"/></mxCell><mxCell id="3" value="1" style="edgeStyle=none;rounded=0;orthogonalLoop=1;jettySize=auto;html=1;labelBackgroundColor=default;fontFamily=Helvetica;fontSize=16;fontColor=default;startArrow=none;startFill=0;endArrow=none;endFill=0;strokeColor=default;exitX=0;exitY=0.5;exitDx=0;exitDy=0;" parent="1" source="vpf754uIMIgk-DJF2axN-2" target="BMLWJn50_ecA1z8dzPmT-49" edge="1"><mxGeometry relative="1" as="geometry"><mxPoint x="505" y="-475.0000000000002" as="sourcePoint"/><mxPoint x="505" y="-345.0000000000002" as="targetPoint"/></mxGeometry></mxCell><mxCell id="4" value="&lt;font style=&quot;font-size: 12px&quot;&gt;Has&lt;/font&gt;" style="shape=rhombus;double=1;perimeter=rhombusPerimeter;whiteSpace=wrap;html=1;align=center;rounded=0;fontFamily=Helvetica;fontSize=16;fontColor=default;strokeColor=default;" parent="1" vertex="1"><mxGeometry x="260" y="-545" width="120" height="60" as="geometry"/></mxCell><mxCell id="ammuNSkiLGQzCwAMGMYX-4" value="&lt;span style=&quot;font-size: 16px&quot;&gt;&lt;b&gt;IC1&lt;/b&gt;:&amp;nbsp;&lt;/span&gt;&lt;span style=&quot;font-size: 16px&quot;&gt;timestamp accurate to the second&lt;/span&gt;" style="text;html=1;strokeColor=none;fillColor=none;align=left;verticalAlign=middle;whiteSpace=wrap;rounded=0;" parent="1" vertex="1"><mxGeometry x="880" y="-1010" width="450" height="30" as="geometry"/></mxCell><mxCell id="ammuNSkiLGQzCwAMGMYX-5" value="&lt;b&gt;IC1&lt;/b&gt;" style="text;html=1;strokeColor=none;fillColor=none;align=center;verticalAlign=middle;whiteSpace=wrap;rounded=0;fontSize=16;" parent="1" vertex="1"><mxGeometry x="-400" y="-610" width="50" height="30" as="geometry"/></mxCell><mxCell id="ammuNSkiLGQzCwAMGMYX-6" value="&lt;span style=&quot;font-size: 16px&quot;&gt;&lt;b&gt;IC2&lt;/b&gt;:&amp;nbsp;&lt;/span&gt;&lt;span style=&quot;font-size: 16px&quot;&gt;sent every 10 seconds&lt;/span&gt;" style="text;html=1;strokeColor=none;fillColor=none;align=left;verticalAlign=middle;whiteSpace=wrap;rounded=0;" parent="1" vertex="1"><mxGeometry x="880" y="-980" width="450" height="30" as="geometry"/></mxCell><mxCell id="ammuNSkiLGQzCwAMGMYX-7" value="&lt;b&gt;IC2&lt;/b&gt;" style="text;html=1;strokeColor=none;fillColor=none;align=center;verticalAlign=middle;whiteSpace=wrap;rounded=0;fontSize=16;" parent="1" vertex="1"><mxGeometry x="-55" y="-585" width="50" height="30" as="geometry"/></mxCell><mxCell id="ammuNSkiLGQzCwAMGMYX-9" value="&lt;span style=&quot;font-size: 16px&quot;&gt;&lt;b&gt;IC3&lt;/b&gt;:&amp;nbsp;&lt;/span&gt;&lt;span style=&quot;font-size: 16px&quot;&gt;with coordinates in decimal degrees of latitude and longitude&lt;/span&gt;" style="text;html=1;strokeColor=none;fillColor=none;align=left;verticalAlign=middle;whiteSpace=wrap;rounded=0;" parent="1" vertex="1"><mxGeometry x="880" y="-950" width="470" height="30" as="geometry"/></mxCell><mxCell id="ammuNSkiLGQzCwAMGMYX-10" value="&lt;b&gt;IC3&lt;/b&gt;" style="text;html=1;strokeColor=none;fillColor=none;align=center;verticalAlign=middle;whiteSpace=wrap;rounded=0;fontSize=16;" parent="1" vertex="1"><mxGeometry x="680" y="-230" width="50" height="30" as="geometry"/></mxCell><mxCell id="ammuNSkiLGQzCwAMGMYX-11" value="&lt;span style=&quot;font-size: 16px&quot;&gt;&lt;b&gt;IC4&lt;/b&gt;:&amp;nbsp;&lt;/span&gt;&lt;span style=&quot;font-size: 16px&quot;&gt;processing performed every 5 minutes&lt;/span&gt;" style="text;html=1;strokeColor=none;fillColor=none;align=left;verticalAlign=middle;whiteSpace=wrap;rounded=0;" parent="1" vertex="1"><mxGeometry x="880" y="-920" width="480" height="30" as="geometry"/></mxCell><mxCell id="ammuNSkiLGQzCwAMGMYX-12" value="&lt;b&gt;IC4&lt;/b&gt;" style="text;html=1;strokeColor=none;fillColor=none;align=center;verticalAlign=middle;whiteSpace=wrap;rounded=0;fontSize=16;" parent="1" vertex="1"><mxGeometry x="-595" y="-765" width="50" height="30" as="geometry"/></mxCell><mxCell id="ammuNSkiLGQzCwAMGMYX-13" value="&lt;span style=&quot;font-size: 16px&quot;&gt;&lt;b&gt;IC5&lt;/b&gt;:&amp;nbsp;&lt;/span&gt;&lt;span style=&quot;font-size: 16px&quot;&gt;remain stored for 15 days&lt;/span&gt;" style="text;html=1;strokeColor=none;fillColor=none;align=left;verticalAlign=middle;whiteSpace=wrap;rounded=0;" parent="1" vertex="1"><mxGeometry x="880" y="-890" width="480" height="30" as="geometry"/></mxCell><mxCell id="ammuNSkiLGQzCwAMGMYX-14" value="&lt;b&gt;IC5&lt;/b&gt;" style="text;html=1;strokeColor=none;fillColor=none;align=center;verticalAlign=middle;whiteSpace=wrap;rounded=0;fontSize=16;" parent="1" vertex="1"><mxGeometry x="-285" y="-765" width="50" height="30" as="geometry"/></mxCell><mxCell id="ammuNSkiLGQzCwAMGMYX-15" value="&lt;span style=&quot;font-size: 16px&quot;&gt;&lt;b&gt;IC6&lt;/b&gt;:&amp;nbsp;&lt;/span&gt;&lt;span style=&quot;font-size: 16px&quot;&gt;limited to a maximum of 3 vehicles&lt;/span&gt;" style="text;html=1;strokeColor=none;fillColor=none;align=left;verticalAlign=middle;whiteSpace=wrap;rounded=0;" parent="1" vertex="1"><mxGeometry x="880" y="-860" width="480" height="30" as="geometry"/></mxCell><mxCell id="ammuNSkiLGQzCwAMGMYX-16" value="&lt;b&gt;IC6&lt;/b&gt;" style="text;html=1;strokeColor=none;fillColor=none;align=center;verticalAlign=middle;whiteSpace=wrap;rounded=0;fontSize=16;" parent="1" vertex="1"><mxGeometry x="980" y="-275" width="50" height="30" as="geometry"/></mxCell><mxCell id="ammuNSkiLGQzCwAMGMYX-19" value="&lt;b&gt;Integrity Constraints&lt;/b&gt;" style="text;html=1;strokeColor=none;fillColor=none;align=center;verticalAlign=middle;whiteSpace=wrap;rounded=0;fontSize=16;" parent="1" vertex="1"><mxGeometry x="1015" y="-1040" width="220" height="30" as="geometry"/></mxCell><mxCell id="5" value="driver_name" style="ellipse;whiteSpace=wrap;html=1;rounded=0;" vertex="1" parent="1"><mxGeometry x="-265" y="-170" width="90" height="40" as="geometry"/></mxCell><mxCell id="6" value="" style="edgeStyle=none;shape=connector;rounded=0;orthogonalLoop=1;jettySize=auto;html=1;labelBackgroundColor=default;fontFamily=Helvetica;fontSize=16;fontColor=default;startArrow=none;startFill=0;endArrow=none;endFill=0;strokeColor=default;" edge="1" parent="1" source="5"><mxGeometry relative="1" as="geometry"><mxPoint x="-245.625" y="-535" as="sourcePoint"/><mxPoint x="-220" y="-215" as="targetPoint"/></mxGeometry></mxCell></root></mxGraphModel></diagram></mxfile>